<svg width="84" height="76" viewBox="0 0 84 76" fill="none" xmlns="http://www.w3.org/2000/svg">
<path d="M4.5 58C5.7 58 6.8 57.5 7.6 56.7L32 32.6L41.9 42.4001C43.6 44.1001 46.3 44.1001 48 42.4001L75.3 15.4V25.1C75.3 27.5 77.2 29.4001 79.6 29.4001C82 29.4001 83.9 27.5 83.9 25.1V5.10005C83.9 2.70005 82 0.800049 79.6 0.800049H59.4C57 0.800049 55.1 2.70005 55.1 5.10005C55.1 7.50005 57 9.40005 59.4 9.40005H69.2L45 33.3L35 23.5C33.3 21.8 30.6 21.8 28.9 23.5L1.4 50.7001C-0.3 52.4001 -0.3 55.1001 1.4 56.8001C2.2 57.5001 3.3 58 4.5 58Z" fill="#1C303A"/>
<path d="M19.4 70.9001C19.4 68.5001 17.5 66.6001 15.1 66.6001H4.49995C2.09995 66.6001 0.199951 68.5001 0.199951 70.9001C0.199951 73.3001 2.09995 75.2001 4.49995 75.2001H15.2C17.5 75.2001 19.4 73.2001 19.4 70.9001Z" fill="#1C303A" fill-opacity="0.5"/>
<path d="M79.6999 66.6001H31C28.6 66.6001 26.7 68.5001 26.7 70.9001C26.7 73.3001 28.6 75.2001 31 75.2001H79.5999C82 75.2001 83.9 73.3001 83.9 70.9001C84 68.5001 82.0999 66.6001 79.6999 66.6001Z" fill="#1C303A"/>
</svg>
