<svg width="91" height="79" viewBox="0 0 91 79" fill="none" xmlns="http://www.w3.org/2000/svg">
<path d="M46 78.4C44.8 78.4 43.7 77.9 42.9 77.1L36.4 70.6C34.7 68.9 34.7 66.1001 36.4 64.4001C38.1 62.7001 40.9 62.7001 42.6 64.4001L46 67.8L77.7 36.1C83.8 30 83.8 20.1 77.7 14C71.6 7.90005 61.7 7.90005 55.6 14L49.1 20.5C47.4 22.2001 44.6 22.2001 42.9 20.5L36.5 14.1C30.4 8.00005 20.5 8.00005 14.4 14.1C8.29997 20.2 8.29997 30.1 14.4 36.2001L31.7 53.5C33.4 55.2001 33.4 58 31.7 59.7C30 61.4 27.2 61.4 25.5 59.7L8.09998 42.4001C-1.40002 32.9001 -1.40002 17.4 8.09998 7.90005C17.6 -1.59995 33.1 -1.59995 42.6 7.90005L45.9 11.2L49.3 7.80005C58.8 -1.69995 74.3 -1.69995 83.8 7.80005C93.3 17.3 93.3 32.8 83.8 42.3L49.1 77.1C48.3 78 47.1 78.4 46 78.4Z" fill="#1C303A"/>
<path d="M22.7 30.4C23.9 29.2 24.1 27.6 23.6 26.2C23.4 25.8 23.4 25.2 23.5 24.7C23.7 23.8 24.4 23.1 25.3 22.9C25.8 22.8 26.3 22.8 26.8 23C28.2 23.5 29.8 23.3 30.9 22.2L31 22.1C32.8 20.3 32.3 17.2 29.9 16.1C28.3 15.4 26.4 15.1 24.5 15.4C20.2 16 16.7 19.5 16 23.9C15.7 25.8 16 27.7 16.7 29.3C17.7 31.6 20.9 32.2 22.7 30.4Z" fill="#1C303A" fill-opacity="0.5"/>
</svg>
