<svg width="785" height="805" viewBox="0 0 785 805" fill="none" xmlns="http://www.w3.org/2000/svg">
<g filter="url(#filter0_f_305_674)">
<circle cx="402.5" cy="402.5" r="302.5" fill="white"/>
</g>
<mask id="mask0_305_674" style="mask-type:alpha" maskUnits="userSpaceOnUse" x="100" y="100" width="605" height="605">
<circle cx="402.5" cy="402.5" r="302.5" fill="white"/>
</mask>
<g mask="url(#mask0_305_674)">
<path d="M610.235 383.228H591.986V393.131H610.235V383.228Z" fill="#CED5DD"/>
<path d="M571.202 338.262L567.491 347.136L583.845 356.722L587.556 347.848L571.202 338.262Z" fill="#CED5DD"/>
<path d="M555.008 376.987L551.297 385.861L567.651 395.447L571.362 386.573L555.008 376.987Z" fill="#CED5DD"/>
<path d="M370.65 447.497C371.412 448.017 372.139 448.607 372.824 449.262L448.125 421.518L452.371 399.399L481.403 402.623L477.1 442.645C476.752 445.878 475.528 448.89 473.612 451.23C471.695 453.569 469.189 455.109 466.47 455.619L377.852 472.23C376.559 475.94 374.343 479.096 371.498 481.278C368.654 483.46 365.315 484.565 361.927 484.446C358.538 484.327 355.261 482.99 352.531 480.612C349.8 478.234 347.746 474.928 346.641 471.134C345.536 467.34 345.433 463.237 346.345 459.372C347.258 455.507 349.143 452.063 351.749 449.497C354.355 446.931 357.56 445.365 360.936 445.008C364.312 444.651 367.7 445.519 370.65 447.497Z" fill="#F9D7DA"/>
<path d="M494.82 415.892L494.321 405.798V405.788L492.715 373.304C493.155 367.108 491.504 360.958 488.122 356.2C484.741 351.442 479.905 348.464 474.673 347.919C473.168 347.759 471.653 347.806 470.157 348.059C465.713 348.803 461.612 351.303 458.518 355.152C455.424 359.002 453.52 363.976 453.114 369.268L450.061 384.309L444.723 410.615C444.345 412.455 444.502 414.393 445.168 416.115C445.834 417.838 446.971 419.244 448.395 420.108C449.217 420.62 450.116 420.933 451.042 421.029L459.94 421.97L478.395 423.913L479.106 423.983L480.932 424.183L487.047 424.824H487.064C488.086 424.922 489.113 424.762 490.078 424.354C491.044 423.947 491.925 423.302 492.664 422.461C493.202 421.84 493.656 421.124 494.008 420.338C494.625 418.975 494.907 417.435 494.82 415.892Z" fill="#A1BCE8"/>
<path d="M577.452 293.497C577.452 327.769 550.685 322.585 517.666 322.585C484.647 322.585 457.881 327.769 457.881 293.497C457.881 259.224 470.956 198.474 517.666 198.474C565.986 198.474 577.452 259.224 577.452 293.497Z" fill="#24252E"/>
<path d="M545.913 308.578C561.624 289.977 561.624 259.82 545.913 241.219C530.202 222.619 504.73 222.619 489.019 241.219C473.308 259.82 473.308 289.977 489.019 308.578C504.73 327.178 530.202 327.178 545.913 308.578Z" fill="#F9D7DA"/>
<path d="M574.098 342.551C573.323 341.668 572.501 340.845 571.637 340.088C566.167 335.196 559.293 333.042 552.496 334.09L478.361 345.195C471.57 346.193 465.375 350.283 461.088 356.598C456.802 362.912 454.76 370.955 455.398 379.021C455.609 381.825 455.846 384.779 456.108 387.854C456.447 391.709 456.827 395.754 457.267 399.94C457.994 406.98 458.882 414.41 459.94 421.97C460.861 428.479 461.91 435.078 463.111 441.597C463.458 443.48 463.819 445.356 464.194 447.225C464.193 447.23 464.194 447.236 464.195 447.241C464.197 447.246 464.199 447.251 464.202 447.255C464.245 447.485 464.287 447.716 464.338 447.936C464.335 447.953 464.338 447.971 464.346 447.986C464.871 450.59 465.421 453.163 465.996 455.707C466.215 456.648 466.427 457.579 466.647 458.5C467.239 461.004 467.865 463.457 468.508 465.871C473.337 483.825 479.723 499.116 488.156 507.247C488.265 507.367 488.376 507.468 488.494 507.578L488.832 507.888L489.323 507.708L491.403 506.977L493.18 506.336L540.587 489.443H540.595L557.52 483.415L559.584 482.674L574.123 477.496L574.588 471.068L578.53 416.973L582.108 367.766C582.453 363.121 581.913 358.444 580.526 354.079C579.14 349.715 576.943 345.775 574.098 342.551Z" fill="#24252E"/>
<path d="M615.551 538.21C615.356 537.539 615.17 536.868 614.975 536.207C606.281 506.166 593.458 483.445 574.588 471.068C574.58 471.068 574.58 471.058 574.571 471.058L574.25 470.847L555.778 478.418L553.663 479.289L553.638 479.299L538.244 485.608L538.219 485.618L526.141 490.564H526.132L514.959 495.141H514.951L512.354 496.212L490.557 505.144L488.528 505.976L488.215 506.106L488.156 507.247L486.76 536.207L486.667 538.21L484.925 574.349L427.063 671.393H466.647C479.91 671.396 493.154 670.201 506.264 667.818L543.403 620.433C543.714 620.051 544.108 619.777 544.541 619.641C544.974 619.505 545.43 619.512 545.86 619.66C546.29 619.809 546.678 620.093 546.981 620.484C547.285 620.874 547.493 621.355 547.582 621.875L553.037 653.919C579.913 642.667 605.055 626.289 627.468 605.432C624.863 580.548 621.057 557.867 615.551 538.21Z" fill="#24252E"/>
<path d="M470.984 270.226H486.896L493.916 246.955L495.319 270.226H502.924L507.019 256.651L507.838 270.226H564.348C564.348 263.604 563.247 257.048 561.106 250.931C558.966 244.814 555.829 239.255 551.875 234.573C547.92 229.891 543.225 226.177 538.058 223.644C532.892 221.11 527.354 219.806 521.761 219.806H513.571C502.276 219.806 491.444 225.118 483.458 234.573C475.471 244.029 470.984 256.853 470.984 270.226Z" fill="#24252E"/>
<path d="M373.112 522.576C370.514 523.868 367.709 524.47 364.893 524.34C362.078 524.21 359.321 523.35 356.816 521.822C354.311 520.293 352.12 518.133 350.397 515.494C348.674 512.855 347.46 509.8 346.842 506.545L278.784 497.42L301.598 465.075L362.729 478.7C367.416 477.832 372.209 479.031 376.2 482.068C380.191 485.105 383.102 489.77 384.381 495.178C385.661 500.586 385.221 506.362 383.144 511.412C381.067 516.462 377.498 520.434 373.112 522.576Z" fill="#FBBDAA"/>
<path d="M336.418 462.706L307.652 456.618L305.564 456.177C303.894 455.824 302.307 455.057 300.906 453.926C299.504 452.795 298.321 451.326 297.434 449.615C296.546 447.904 295.975 445.99 295.756 443.999C295.538 442.008 295.678 439.985 296.167 438.062L310.291 382.496L310.714 380.844C312.478 373.781 312.164 366.219 309.824 359.395C307.483 352.571 303.256 346.89 297.833 343.282C294.162 340.869 290.07 339.491 285.876 339.255C281.682 339.018 277.499 339.931 273.651 341.921C269.803 343.911 266.395 346.925 263.692 350.728C260.988 354.532 259.062 359.022 258.063 363.851L240.048 450.9L239.379 454.124C238.121 460.199 237.984 466.522 238.977 472.665C239.97 478.807 242.071 484.624 245.135 489.718C248.199 494.813 252.155 499.065 256.733 502.185C261.311 505.305 266.404 507.22 271.664 507.798C271.723 507.808 271.774 507.808 271.833 507.818L282.617 508.95L314.199 512.274L330.616 514.007C332.767 514.237 334.912 513.503 336.626 511.948C338.34 510.394 339.498 508.133 339.869 505.615C339.895 505.475 339.912 505.335 339.928 505.195L343.413 474.392L343.447 474.112C343.748 471.504 343.184 468.859 341.873 466.733C340.563 464.607 338.608 463.164 336.418 462.706Z" fill="#CED5DD"/>
<path d="M292.1 229.318C280.616 256.047 271.566 283.616 246.237 283.616C234.073 283.616 222.408 277.896 213.807 267.713C205.206 257.53 200.374 243.719 200.374 229.318C200.374 199.329 220.909 175.394 246.237 175.019C271.979 174.637 313.473 179.566 292.1 229.318Z" fill="#24252E"/>
<path d="M320.906 578.996L319.866 566.699L319.088 566.749L182.33 574.55L182.685 586.997L183.286 608.316C204.447 627.4 227.947 642.546 252.971 653.228L253.86 645.076C253.937 644.412 254.206 643.8 254.621 643.344C255.036 642.888 255.572 642.615 256.137 642.573C256.702 642.53 257.263 642.721 257.723 643.111C258.183 643.502 258.516 644.069 258.663 644.716L261.362 656.622C283.161 664.945 305.799 669.798 328.679 671.052L320.906 578.996Z" fill="#24252E"/>
<path d="M276.941 270.723C292.652 252.123 292.652 221.965 276.941 203.365C261.23 184.764 235.758 184.764 220.047 203.365C204.336 221.965 204.336 252.123 220.047 270.723C235.758 289.324 261.23 289.324 276.941 270.723Z" fill="#FBBDAA"/>
<path d="M328.764 567.53L320.788 538.21L320.247 536.207L317.971 527.856C317.235 525.142 316.533 522.418 315.882 519.684C315.282 517.221 314.721 514.751 314.199 512.274C313.455 508.83 312.778 505.371 312.169 501.9C310.105 490.234 308.729 478.413 308.05 466.521C307.864 463.227 307.731 459.926 307.652 456.618C307.157 436.343 308.699 416.07 312.245 396.225C315.333 379.065 313.684 361.184 307.541 345.217C301.398 329.25 291.087 316.04 278.126 307.533C269.62 301.968 260.207 298.625 250.519 297.73C249.85 297.67 249.182 297.62 248.506 297.57C238.271 296.804 228.023 298.77 218.516 303.321C209.009 307.872 200.487 314.893 193.579 323.866C189.879 328.638 186.665 333.908 184.004 339.567C176.621 355.317 173.849 373.518 176.122 391.328L185.628 466.902L178.05 578.185C177.921 580.048 178.302 581.911 179.137 583.498C179.971 585.085 181.215 586.312 182.685 586.997C183.545 587.405 184.465 587.612 185.392 587.608C185.527 587.608 185.654 587.608 185.789 587.598L320.906 578.996L322.141 578.916C323.268 578.846 324.367 578.471 325.352 577.819C326.337 577.167 327.182 576.255 327.822 575.155C328.462 574.055 328.88 572.795 329.044 571.472C329.207 570.15 329.111 568.801 328.764 567.53Z" fill="#CED5DD"/>
<path d="M291.184 210.126C281.991 217.628 271.08 221.62 259.914 221.568C263.897 224.837 268.431 227.045 273.204 228.041C258.359 231.811 243.017 231.913 228.137 228.34C224.83 227.713 221.638 226.415 218.703 224.504C215.846 222.451 213.456 219.181 212.88 215.284C211.891 208.596 216.292 202.52 220.866 198.426C227.87 192.252 235.944 187.999 244.506 185.973C253.068 183.947 261.904 184.2 270.373 186.713C275.903 188.406 281.443 191.265 285.035 196.523C288.627 201.781 289.691 209.888 286.269 215.302L291.184 210.126Z" fill="#24252E"/>
<path d="M293.241 512.667C290.668 514.026 287.874 514.7 285.056 514.642C282.239 514.584 279.467 513.795 276.935 512.331C274.403 510.867 272.173 508.764 270.402 506.169C268.631 503.575 267.361 500.552 266.684 497.314L198.475 489.935L220.692 457.013L282.058 469.068C286.728 468.08 291.542 469.156 295.587 472.09C299.633 475.024 302.628 479.613 304.007 484.987C305.385 490.361 305.051 496.147 303.066 501.249C301.082 506.351 297.586 510.413 293.241 512.667Z" fill="#FBBDAA"/>
<path d="M255.467 453.754L240.048 450.9L224.493 448.016C222.818 447.706 221.217 446.98 219.796 445.886C218.374 444.792 217.165 443.354 216.246 441.666C215.327 439.979 214.721 438.081 214.466 436.096C214.211 434.112 214.313 432.086 214.766 430.152L228.265 372.573C229.899 365.466 229.446 357.914 226.982 351.152C224.517 344.39 220.186 338.819 214.699 335.352C210.992 333.01 206.875 331.723 202.674 331.593C198.474 331.462 194.306 332.492 190.5 334.6C186.683 336.676 183.325 339.772 180.69 343.645C178.056 347.518 176.217 352.063 175.318 356.921L158.292 447.656C157.145 453.776 157.129 460.118 158.243 466.246C159.358 472.375 161.578 478.147 164.752 483.165C167.925 488.184 171.977 492.332 176.63 495.325C181.283 498.319 186.427 500.087 191.71 500.508L250.603 505.185C252.757 505.359 254.887 504.569 256.572 502.972C258.257 501.376 259.375 499.088 259.704 496.563C259.729 496.423 259.738 496.282 259.755 496.142L262.673 465.26L262.698 464.979C262.95 462.365 262.337 459.737 260.99 457.645C259.642 455.552 257.663 454.158 255.467 453.754Z" fill="#CED5DD"/>
<path d="M516.377 405.888L465.834 438.538C464.122 439.647 462.851 441.515 462.3 443.733C461.749 445.95 461.964 448.335 462.897 450.366L495.279 520.63C496.216 522.657 497.794 524.162 499.667 524.814C501.54 525.466 503.555 525.212 505.269 524.107L505.278 524.101L555.803 491.463L555.812 491.457C557.525 490.348 558.796 488.48 559.347 486.262C559.897 484.045 559.683 481.659 558.749 479.629L526.368 409.365C525.431 407.337 523.853 405.833 521.98 405.181C520.107 404.529 518.092 404.783 516.377 405.888Z" fill="#7F7F7F"/>
<path d="M517.393 408.091L466.85 440.741C465.63 441.531 464.725 442.861 464.333 444.44C463.941 446.019 464.094 447.718 464.758 449.164L497.14 519.428C497.807 520.872 498.931 521.943 500.264 522.408C501.598 522.872 503.033 522.691 504.254 521.904L504.263 521.898L554.797 489.254C556.017 488.464 556.922 487.134 557.314 485.555C557.706 483.976 557.553 482.277 556.889 480.831L524.507 410.567C523.84 409.123 522.716 408.051 521.382 407.587C520.049 407.123 518.614 407.304 517.393 408.091Z" fill="white"/>
<path d="M518.579 427.929C518.422 427.591 518.159 427.341 517.847 427.232C517.535 427.124 517.199 427.165 516.913 427.348L515.23 428.439L498.069 439.524C497.784 439.71 497.574 440.022 497.483 440.39C497.393 440.759 497.429 441.156 497.584 441.493C497.739 441.83 498.001 442.081 498.312 442.191C498.623 442.3 498.958 442.26 499.244 442.078L518.089 429.901C518.373 429.715 518.585 429.404 518.677 429.034C518.768 428.665 518.733 428.268 518.579 427.929Z" fill="#7F7F7F"/>
<path d="M524.999 429.361C524.922 429.193 524.818 429.046 524.693 428.927C524.568 428.807 524.425 428.719 524.271 428.665C524.116 428.612 523.955 428.596 523.795 428.617C523.636 428.639 523.481 428.697 523.341 428.79L500.056 443.83C499.915 443.922 499.79 444.045 499.689 444.194C499.589 444.342 499.514 444.512 499.468 444.695C499.423 444.878 499.409 445.069 499.426 445.259C499.444 445.448 499.492 445.631 499.57 445.798C499.647 445.965 499.751 446.113 499.876 446.232C500.002 446.351 500.146 446.44 500.3 446.494C500.454 446.547 500.616 446.564 500.776 446.543C500.936 446.523 501.091 446.465 501.232 446.374L509.089 441.297H509.098L524.508 431.333C524.651 431.243 524.777 431.12 524.879 430.972C524.981 430.823 525.057 430.652 525.103 430.469C525.149 430.285 525.163 430.092 525.145 429.902C525.127 429.712 525.077 429.528 524.999 429.361Z" fill="#7F7F7F"/>
<path d="M499.692 453.333L492.3 437.281C492.223 437.12 492.096 437.001 491.945 436.951C491.795 436.9 491.634 436.922 491.497 437.011L474.124 448.226C473.988 448.317 473.887 448.468 473.845 448.647C473.802 448.825 473.82 449.015 473.895 449.178L474.369 450.209L481.288 465.23C481.363 465.39 481.489 465.509 481.638 465.559C481.787 465.61 481.947 465.589 482.083 465.5L499.455 454.285C499.524 454.241 499.585 454.182 499.634 454.11C499.683 454.038 499.72 453.956 499.742 453.868C499.764 453.779 499.771 453.686 499.762 453.595C499.754 453.503 499.73 453.414 499.692 453.333Z" fill="#7F7F7F"/>
<path d="M527.925 448.296C527.77 447.96 527.508 447.709 527.198 447.6C526.887 447.492 526.552 447.533 526.267 447.716L500.707 464.228C500.481 464.375 500.3 464.601 500.19 464.876C500.079 465.151 500.044 465.461 500.09 465.76C500.108 465.916 500.151 466.065 500.217 466.201C500.281 466.339 500.364 466.464 500.462 466.572L500.47 466.582C500.66 466.783 500.897 466.91 501.15 466.946C501.403 466.982 501.659 466.925 501.883 466.782L527.443 450.269C527.585 450.177 527.709 450.053 527.81 449.905C527.911 449.756 527.986 449.585 528.03 449.401C528.075 449.218 528.089 449.026 528.071 448.837C528.053 448.647 528.003 448.463 527.925 448.296Z" fill="#7F7F7F"/>
<path d="M534.353 449.728C534.276 449.561 534.171 449.414 534.045 449.295C533.919 449.176 533.775 449.087 533.62 449.034C533.465 448.981 533.303 448.965 533.143 448.986C532.983 449.007 532.828 449.066 532.687 449.158L502.687 468.534C502.461 468.675 502.279 468.898 502.168 469.17C502.057 469.442 502.022 469.749 502.069 470.046V470.056C502.087 470.212 502.13 470.361 502.196 470.497C502.261 470.64 502.347 470.769 502.45 470.877C502.637 471.083 502.875 471.214 503.128 471.249C503.382 471.285 503.639 471.225 503.862 471.078L533.863 451.701C534.148 451.516 534.36 451.204 534.452 450.835C534.544 450.465 534.508 450.067 534.353 449.728Z" fill="#7F7F7F"/>
<path d="M492.146 480.301C495.019 480.301 497.348 477.544 497.348 474.143C497.348 470.741 495.019 467.984 492.146 467.984C489.273 467.984 486.944 470.741 486.944 474.143C486.944 477.544 489.273 480.301 492.146 480.301Z" fill="#7F7F7F"/>
<path d="M531.602 378.851L481.059 411.501C479.346 412.61 478.075 414.478 477.524 416.696C476.974 418.913 477.189 421.298 478.122 423.329L510.503 493.593C511.44 495.62 513.018 497.125 514.891 497.777C516.764 498.429 518.779 498.175 520.494 497.07L520.503 497.064L571.028 464.426L571.037 464.42C572.75 463.311 574.021 461.442 574.571 459.225C575.122 457.008 574.907 454.622 573.974 452.592L541.592 382.328C540.655 380.3 539.077 378.796 537.204 378.144C535.332 377.492 533.317 377.746 531.602 378.851Z" fill="#CED5DD"/>
<path d="M532.617 381.054L482.074 413.704C480.854 414.494 479.949 415.824 479.557 417.403C479.165 418.982 479.318 420.681 479.983 422.127L512.364 492.391C513.031 493.835 514.155 494.906 515.489 495.37C516.823 495.835 518.257 495.654 519.479 494.867L519.488 494.861L570.022 462.217C571.241 461.427 572.146 460.097 572.539 458.518C572.931 456.939 572.778 455.24 572.113 453.794L539.732 383.53C539.064 382.086 537.941 381.014 536.607 380.55C535.273 380.086 533.838 380.267 532.617 381.054Z" fill="white"/>
<path d="M533.804 400.891C533.647 400.554 533.383 400.304 533.071 400.195C532.759 400.087 532.424 400.128 532.137 400.311L513.293 412.487C513.009 412.673 512.799 412.984 512.708 413.353C512.617 413.722 512.653 414.119 512.809 414.456C512.964 414.793 513.226 415.044 513.537 415.154C513.848 415.263 514.183 415.223 514.468 415.041L523.603 409.143L525.515 407.901L533.313 402.864C533.598 402.678 533.809 402.367 533.901 401.997C533.993 401.628 533.958 401.23 533.804 400.891Z" fill="#CED5DD"/>
<path d="M540.223 402.323C540.147 402.156 540.043 402.009 539.918 401.89C539.793 401.77 539.649 401.681 539.495 401.628C539.341 401.575 539.179 401.559 539.02 401.58C538.86 401.602 538.706 401.66 538.565 401.753L515.28 416.793C515.139 416.885 515.015 417.008 514.914 417.156C514.813 417.305 514.738 417.475 514.693 417.658C514.648 417.841 514.633 418.032 514.651 418.221C514.668 418.411 514.717 418.594 514.794 418.761C514.871 418.928 514.975 419.075 515.101 419.195C515.226 419.314 515.37 419.403 515.524 419.456C515.679 419.51 515.84 419.527 516 419.506C516.16 419.486 516.315 419.428 516.456 419.337L539.733 404.296C539.875 404.206 540.001 404.083 540.103 403.935C540.206 403.786 540.282 403.615 540.327 403.432C540.373 403.248 540.387 403.055 540.369 402.865C540.352 402.675 540.302 402.491 540.223 402.323Z" fill="#CED5DD"/>
<path d="M514.917 426.296L508.007 411.296L507.524 410.244C507.448 410.083 507.32 409.964 507.17 409.914C507.019 409.863 506.858 409.885 506.721 409.974L489.348 421.189C489.212 421.28 489.112 421.431 489.069 421.609C489.026 421.788 489.044 421.978 489.12 422.141L489.602 423.182L490.126 424.334L490.617 425.385V425.395L496.512 438.193C496.587 438.353 496.713 438.472 496.862 438.522C497.011 438.573 497.171 438.552 497.307 438.463L514.68 427.248C514.748 427.204 514.809 427.145 514.858 427.073C514.907 427.001 514.944 426.919 514.966 426.831C514.988 426.742 514.995 426.649 514.987 426.558C514.978 426.466 514.954 426.377 514.917 426.296Z" fill="#A1BCE8"/>
<path d="M543.15 421.259C542.995 420.923 542.733 420.672 542.422 420.563C542.111 420.454 541.777 420.496 541.492 420.679L524.618 431.574L515.932 437.191C515.79 437.283 515.665 437.406 515.564 437.555C515.462 437.703 515.387 437.874 515.341 438.057C515.296 438.241 515.281 438.433 515.298 438.622C515.315 438.812 515.364 438.996 515.441 439.164C515.518 439.332 515.623 439.48 515.748 439.6C515.874 439.72 516.018 439.809 516.173 439.863C516.327 439.917 516.49 439.934 516.65 439.914C516.81 439.894 516.966 439.836 517.107 439.745L542.668 423.232C542.809 423.14 542.934 423.016 543.034 422.868C543.135 422.719 543.21 422.548 543.255 422.364C543.3 422.181 543.313 421.989 543.295 421.799C543.277 421.61 543.228 421.426 543.15 421.259Z" fill="#CED5DD"/>
<path d="M549.578 422.691C549.5 422.524 549.395 422.377 549.27 422.258C549.144 422.139 548.999 422.05 548.845 421.997C548.69 421.944 548.528 421.928 548.368 421.949C548.208 421.97 548.053 422.028 547.911 422.121L517.911 441.497C517.769 441.588 517.644 441.711 517.542 441.86C517.441 442.008 517.365 442.179 517.319 442.362C517.274 442.545 517.259 442.737 517.276 442.927C517.294 443.116 517.342 443.3 517.42 443.468C517.497 443.635 517.602 443.783 517.727 443.903C517.853 444.022 517.998 444.111 518.153 444.164C518.307 444.218 518.47 444.234 518.63 444.213C518.79 444.192 518.945 444.133 519.086 444.041L549.087 424.664C549.373 424.479 549.584 424.167 549.676 423.798C549.768 423.428 549.733 423.03 549.578 422.691Z" fill="#CED5DD"/>
<path d="M507.371 453.264C510.244 453.264 512.573 450.507 512.573 447.105C512.573 443.704 510.244 440.947 507.371 440.947C504.498 440.947 502.169 443.704 502.169 447.105C502.169 450.507 504.498 453.264 507.371 453.264Z" fill="#CED5DD"/>
<path d="M510.865 481.731C511.741 481.833 512.608 482.017 513.46 482.28L572.454 420.319L568.64 398.091L596.222 386.89L606.206 425.464C607.012 428.58 606.943 431.922 606.009 434.988C605.074 438.054 603.325 440.678 601.024 442.467L526.023 500.766C526.134 504.777 525.21 508.733 523.376 512.107C521.541 515.482 518.882 518.115 515.752 519.657C512.623 521.199 509.171 521.576 505.856 520.738C502.541 519.901 499.52 517.888 497.194 514.968C494.869 512.048 493.349 508.359 492.838 504.391C492.327 500.424 492.848 496.366 494.332 492.758C495.816 489.15 498.193 486.162 501.146 484.193C504.1 482.223 507.49 481.364 510.865 481.731Z" fill="#F9D7DA"/>
<path d="M613.064 392.44L596.351 354.648C594.631 348.9 591.091 344.168 586.48 341.452C581.869 338.735 576.547 338.246 571.637 340.088C571.45 340.148 571.273 340.218 571.087 340.298C566.111 342.358 562.029 346.67 559.736 352.289C557.443 357.908 557.126 364.375 558.856 370.269L565.564 412.037C565.756 413.232 566.163 414.365 566.759 415.357C567.354 416.349 568.124 417.177 569.014 417.785C569.988 418.459 571.085 418.844 572.211 418.906C573.138 418.976 574.068 418.822 574.943 418.456L578.53 416.973L609.08 404.376C610.051 403.974 610.937 403.329 611.679 402.486C612.421 401.642 613 400.619 613.378 399.487C613.756 398.354 613.924 397.139 613.869 395.923C613.815 394.707 613.541 393.519 613.064 392.44Z" fill="#A1BCE8"/>
<path d="M676.156 538.21H123.846C123.621 538.21 123.406 538.104 123.248 537.917C123.089 537.729 123 537.474 123 537.209C123 536.943 123.089 536.688 123.248 536.5C123.406 536.313 123.621 536.207 123.846 536.207H300H676.156C676.38 536.207 676.595 536.313 676.754 536.5C676.912 536.688 677.002 536.943 677.002 537.209C677.002 537.474 676.912 537.729 676.754 537.917C676.595 538.104 676.38 538.21 676.156 538.21Z" fill="#7F7F7F"/>
<path d="M218.995 519.684V520.185C218.998 523.58 219.833 526.901 221.399 529.745C222.965 532.589 225.195 534.834 227.817 536.207C229.698 537.203 231.736 537.715 233.797 537.709H370.394V519.684H218.995Z" fill="#7F7F7F"/>
<path d="M465.767 400.891C463.599 395.594 460.262 391.089 456.108 387.854C454.225 386.378 452.193 385.187 450.061 384.309C447.154 383.107 444.097 382.494 441.019 382.496H309.919C302.631 382.506 295.645 385.938 290.491 392.039C285.338 398.141 282.439 406.413 282.431 415.041V505.165C282.428 506.43 282.491 507.694 282.617 508.95C282.803 510.828 283.125 512.684 283.581 514.497C284.033 516.283 284.616 518.019 285.323 519.684C287.6 525.101 291.109 529.658 295.454 532.842C299.799 536.027 304.809 537.712 309.919 537.709H441.019C444.629 537.711 448.204 536.87 451.54 535.235C454.876 533.6 457.907 531.203 460.459 528.181C463.012 525.158 465.037 521.57 466.418 517.621C467.799 513.672 468.509 509.439 468.508 505.165V415.041C468.514 410.139 467.576 405.3 465.767 400.891Z" fill="#7F7F7F"/>
<path d="M382.658 468.114C386.395 468.114 389.425 464.527 389.425 460.103C389.425 455.678 386.395 452.092 382.658 452.092C378.921 452.092 375.892 455.678 375.892 460.103C375.892 464.527 378.921 468.114 382.658 468.114Z" fill="white"/>
<path d="M231.5 537.5C221.5 535.5 219.333 525 219.5 520H370.5V536C397 535.5 449.7 534.8 448.5 536C447.3 537.2 445.667 537.5 445 537.5C378 538.333 241.5 539.5 231.5 537.5Z" fill="#7F7F7F" stroke="#7F7F7F"/>
</g>
<defs>
<filter id="filter0_f_305_674" x="0" y="0" width="805" height="805" filterUnits="userSpaceOnUse" color-interpolation-filters="sRGB">
<feFlood flood-opacity="0" result="BackgroundImageFix"/>
<feBlend mode="normal" in="SourceGraphic" in2="BackgroundImageFix" result="shape"/>
<feGaussianBlur stdDeviation="50" result="effect1_foregroundBlur_305_674"/>
</filter>
</defs>
</svg>
