<svg width="176" height="30" viewBox="0 0 176 30" fill="none" xmlns="http://www.w3.org/2000/svg">
<path d="M23.5443 28.3086C23.5443 19.4197 23.5443 10.5802 23.5443 1.74072C15.9791 1.74072 8.51478 1.74072 1 1.74072C1 10.6296 1 19.4197 1 28.2592C2.21043 28.2592 3.42087 28.2592 4.68174 28.2592C4.68174 20.4567 4.68174 12.7037 4.68174 4.99997C9.77565 4.99997 14.7687 4.99997 19.913 4.99997C19.913 12.8024 19.913 20.5061 19.913 28.3086C21.1739 28.3086 22.2835 28.3086 23.5443 28.3086Z" fill="#EE3124" stroke="#EE3124" stroke-width="0.2"/>
<path d="M86.7391 24.9999L77.0052 3.5185C76.5009 2.43208 75.3913 1.74072 74.1809 1.74072C72.9704 1.74072 71.8609 2.43208 71.3565 3.5185L61.5722 24.9505H58.2435V28.2592H90.0678V24.9505H86.7391V24.9999ZM74.1809 5.74071L82.7548 24.9999H65.6574L74.1809 5.74071Z" fill="#EE3124" stroke="#EE3124" stroke-width="0.2"/>
<path d="M147.21 28.3085L136.569 3.56781C136.115 2.4814 135.005 1.79004 133.795 1.79004C132.584 1.79004 131.475 2.4814 131.021 3.56781L120.329 28.3085H124.363L133.795 5.93818L143.226 28.3085H147.21Z" fill="#EE3124" stroke="#EE3124" stroke-width="0.2"/>
<path d="M171.369 1.74072H171.318L155.129 23.2222V1.74072H151.497V28.0617V28.3086H155.129L171.369 6.72837V28.3086H175V1.88887V1.74072H171.369Z" fill="#EE3124" stroke="#EE3124" stroke-width="0.2"/>
<path d="M105.047 25.4938C102.424 25.4938 99.9026 24.5555 97.9861 22.8765C96.0191 21.1975 94.7583 18.8765 94.4557 16.3086H119.27C119.32 15.8642 119.32 15.4197 119.32 15.0247C119.32 14.3333 119.27 13.6419 119.169 12.9506C118.664 9.64196 116.95 6.58024 114.377 4.4074C111.805 2.23457 108.477 1 105.047 1C101.264 1 97.633 2.48148 94.96 5.09876C92.287 7.71603 90.7739 11.2716 90.7739 14.9753C90.7739 18.679 92.287 22.2345 94.96 24.8518C97.633 27.4691 101.264 28.9506 105.047 28.9506C107.871 28.9506 110.595 28.1111 112.965 26.5802C115.285 25.0493 117.151 22.8765 118.21 20.3086H114.226C113.268 21.8888 111.957 23.1728 110.343 24.0617C108.729 25.0493 106.913 25.4938 105.047 25.4938ZM105.047 4.55555C107.518 4.55555 109.939 5.39505 111.856 6.92591C113.772 8.45677 115.083 10.5802 115.588 12.9506H94.607C95.1113 10.5802 96.4226 8.45677 98.3391 6.92591C100.205 5.39505 102.626 4.55555 105.047 4.55555Z" fill="#EE3124" stroke="#EE3124" stroke-width="0.2"/>
<path d="M43.3148 1.04944C35.447 1.04944 29.0417 7.32103 29.0417 15.0247C29.0417 22.7284 35.447 29 43.3148 29C51.1826 29 57.5878 22.7284 57.5878 15.0247C57.5878 7.32103 51.1826 1.04944 43.3148 1.04944ZM43.3148 25.4938C37.4139 25.4938 32.6226 20.8025 32.6226 15.0247C32.6226 9.24695 37.4139 4.5556 43.3148 4.5556C49.2157 4.5556 54.007 9.24695 54.007 15.0247C54.007 20.8025 49.2157 25.4938 43.3148 25.4938Z" fill="#EE3124" stroke="#EE3124" stroke-width="0.2"/>
<path d="M43.3148 2.92595C43.3148 3.81484 43.9705 4.55558 44.8279 4.65434C49.5183 5.29631 53.2505 8.95063 53.9061 13.5432C54.007 14.3827 54.814 15.0247 55.6713 15.0247C56.7305 15.0247 57.5879 14.0864 57.4366 13.0494C56.5287 6.92594 51.5861 2.03706 45.3322 1.19756C44.2731 1.04941 43.3148 1.88891 43.3148 2.92595Z" fill="#24252E" stroke="#24252E" stroke-width="0.2"/>
</svg>
