<svg width="76" height="77" viewBox="0 0 76 77" fill="none" xmlns="http://www.w3.org/2000/svg">
<path d="M74.9 8.60003C74.2 7.10003 73.4 5.70003 72.2 4.60003C71.6 4.00003 71 3.50003 70.4 3.10003C69.7 2.60003 69.1 2.20002 68.3 1.90002C67.9 1.70002 67.5 1.60002 67.1 1.50002C66.3 1.30002 65.5 1.10002 64.6 1.00002C64.1 1.00002 63.7 0.900024 63.3 0.900024H12.7C5.7 0.900024 0 6.60003 0 13.6V47.8C0 50.1 1.9 52 4.2 52C6.5 52 8.4 50.1 8.4 47.8L8.5 13.5C8.5 11 10.2 9.30002 12.7 9.30002H63.2C65.7 9.30002 67.4 11 67.4 13.5L67.5 22L67.4 30.6V64.3C67.4 66.6 65.5 68.5 63.2 68.5H12.7C10.4 68.5 8.5 66.6 8.5 64.3V63.3C8.5 61 6.6 59.1 4.3 59.1C2 59.1 0.1 61 0.1 63.3V64.3C0.1 71.3 5.8 77 12.8 77H63.3C70.3 77 76 71.3 76 64.3V13.6C75.9 11.8 75.6 10.1 74.9 8.60003Z" fill="#1C303A"/>
</svg>
