<svg width="86" height="83" viewBox="0 0 86 83" fill="none" xmlns="http://www.w3.org/2000/svg">
<path d="M80.1 27L59.6 24C59.3 24 59 23.7 58.9 23.5L49.7 4.80002C49 3.40002 47.9 2.30002 46.6 1.70002C43.1 2.43187e-05 39 1.40002 37.3 4.80002L28.1 23.4C28 23.7 27.7 23.9 27.4 23.9L6.90001 26.9C5.40001 27.1 4.00001 27.8 2.90001 28.9C0.200011 31.6 0.300011 36 3.00001 38.6L17.8 53.1C18 53.3 18.1 53.7 18.1 54C17.7 56.4 19.5 58.5 21.9 58.5H22.5C24.4 58.5 26 57.1 26.3 55.3L26.7 53.1C27 51.2 26.4 49.2 25 47.9L12.4 35.5C12.3 35.4 12.2 35.2 12.1 35C12 34.5 12.4 34.1 12.8 34L30.4 31.4C32.3 31.1 34 29.9 34.8 28.2L42.6 12.3C42.7 12.1 42.8 12 43 11.9C43.4 11.7 43.9 11.9 44.1 12.3L52 28.2C52.9 29.9 54.5 31.1 56.4 31.4L74 34C74.2 34 74.4 34.1 74.5 34.2C74.8 34.5 74.8 35.1 74.5 35.4L61.9 47.9C60.5 49.3 59.9 51.2 60.2 53.1L63.2 70.6C63.3 70.9 63.1 71.2 62.9 71.4C62.6 71.6 62.3 71.6 62 71.5L46.3 63.2C45.5 62.8 44.5 62.5 43.6 62.5C42.6 62.5 41.7 62.7 40.9 63.2L25.2 71.5C25 71.6 24.8 71.6 24.7 71.6C24.2 71.5 23.9 71.1 24 70.6V70.3C24.4 67.8 22.5 65.4 19.9 65.4C17.9 65.4 16.1 66.9 15.8 68.9L14.9 74.2C14.7 75.4 14.7 76.7 15.2 77.9C16.7 81.9 21.2 83.5 24.9 81.6L43 72.1C43.3 71.9 43.6 71.9 43.9 72.1L62.2 81.7C63.2 82.2 64.3 82.5 65.4 82.5C65.8 82.5 66.2 82.5 66.5 82.4C70.3 81.8 72.8 78.2 72.1 74.4L68.8 54C68.7 53.7 68.9 53.3 69.1 53.1L83.9 38.6C85 37.5 85.7 36.2 85.9 34.7C86.5 31 83.9 27.5 80.1 27Z" fill="#1C303A"/>
<path d="M40.0999 43.8001C41.9999 43.5001 43.6999 42.3001 44.4999 40.6001L47.9999 33.4001C48.7999 31.8001 48.4999 29.9001 47.1999 28.7001C45.1999 26.7001 41.8999 27.3001 40.5999 29.8001L37.6999 35.7001C37.5999 36.0001 37.2999 36.2001 36.9999 36.2001L31.6999 37.0001C28.4999 37.5001 27.1999 41.4001 29.4999 43.6001L29.5999 43.7001C30.4999 44.6001 31.6999 45.0001 32.8999 44.8001L40.0999 43.8001Z" fill="#1C303A" fill-opacity="0.5"/>
</svg>
